STARTFONT 2.1
COMMENT
COMMENT Converted from OpenType font "Oxanium-Light.ttf" by "otf2bdf 3.0".
COMMENT
FONT -FreeType-Oxanium Light-Medium-R-Normal--21-210-72-72-P-89-ISO10646-1
SIZE 21 72 72
FONTBOUNDINGBOX 33 27 -9 -5
STARTPROPERTIES 19
FOUNDRY "FreeType"
FAMILY_NAME "Oxanium Light"
WEIGHT_NAME "Medium"
SLANT "R"
SETWIDTH_NAME "Normal"
ADD_STYLE_NAME ""
PIXEL_SIZE 21
POINT_SIZE 210
RESOLUTION_X 72
RESOLUTION_Y 72
SPACING "P"
AVERAGE_WIDTH 89
CHARSET_REGISTRY "ISO10646"
CHARSET_ENCODING "1"
FONT_ASCENT 16
FONT_DESCENT 4
COPYRIGHT "Copyright 2019 The Oxanium Project Authors (https://github.com/sevmeyer/oxanium)"
_OTF_FONTFILE "Oxanium-Light.ttf"
_OTF_PSNAME "Oxanium-Light"
ENDPROPERTIES
CHARS 357
STARTCHAR 0000
ENCODING 0
SWIDTH 0 0
DWIDTH 0 0
BBX 0 0 0 0
BITMAP
ENDCHAR
STARTCHAR 000D
ENCODING 13
SWIDTH 238 0
DWIDTH 5 0
BBX 0 0 0 0
BITMAP
ENDCHAR
STARTCHAR 0020
ENCODING 32
SWIDTH 238 0
DWIDTH 5 0
BBX 0 0 0 0
BITMAP
ENDCHAR
STARTCHAR 0021
ENCODING 33
SWIDTH 238 0
DWIDTH 5 0
BBX 2 15 2 0
BITMAP
80
80
80
80
80
80
80
80
80
80
80
00
00
C0
C0
ENDCHAR
STARTCHAR 0022
ENCODING 34
SWIDTH 380 0
DWIDTH 8 0
BBX 4 5 2 11
BITMAP
90
90
90
90
90
ENDCHAR
STARTCHAR 0023
ENCODING 35
SWIDTH 666 0
DWIDTH 14 0
BBX 12 15 1 0
BITMAP
1080
1080
1080
1080
FFF0
1080
1080
1080
1080
1080
FFF0
1080
1080
1080
1080
ENDCHAR
STARTCHAR 0024
ENCODING 36
SWIDTH 571 0
DWIDTH 12 0
BBX 9 20 2 -3
BITMAP
1800
1800
1800
7F00
C000
8000
8000
8000
8000
FC00
0F00
0100
0180
0180
0180
0100
FE00
1800
1800
1800
ENDCHAR
STARTCHAR 0025
ENCODING 37
SWIDTH 857 0
DWIDTH 18 0
BBX 16 15 1 0
BITMAP
F810
8420
8420
8460
8440
84C0
849F
85A1
F921
0321
0221
0621
0421
0C21
081F
ENDCHAR
STARTCHAR 0026
ENCODING 38
SWIDTH 666 0
DWIDTH 14 0
BBX 11 15 2 0
BITMAP
7F00
C000
8000
8000
8000
8000
4000
7FE0
8180
8180
8180
8180
8180
8180
7F80
ENDCHAR
STARTCHAR 0027
ENCODING 39
SWIDTH 190 0
DWIDTH 4 0
BBX 1 5 2 11
BITMAP
80
80
80
80
80
ENDCHAR
STARTCHAR 0028
ENCODING 40
SWIDTH 285 0
DWIDTH 6 0
BBX 4 20 2 -4
BITMAP
30
20
60
40
C0
80
80
80
80
80
80
80
80
80
80
C0
40
60
20
30
ENDCHAR
STARTCHAR 0029
ENCODING 41
SWIDTH 285 0
DWIDTH 6 0
BBX 5 20 0 -4
BITMAP
C0
40
20
20
30
10
10
18
18
18
18
18
18
10
10
30
20
20
40
C0
ENDCHAR
STARTCHAR 002A
ENCODING 42
SWIDTH 476 0
DWIDTH 10 0
BBX 9 8 1 7
BITMAP
0800
0800
0800
EF80
1C00
1C00
2400
6200
ENDCHAR
STARTCHAR 002B
ENCODING 43
SWIDTH 571 0
DWIDTH 12 0
BBX 10 9 1 3
BITMAP
0C00
0C00
0C00
0C00
FFC0
0C00
0C00
0C00
0C00
ENDCHAR
STARTCHAR 002C
ENCODING 44
SWIDTH 238 0
DWIDTH 5 0
BBX 2 5 1 -3
BITMAP
40
40
C0
80
80
ENDCHAR
STARTCHAR 002D
ENCODING 45
SWIDTH 333 0
DWIDTH 7 0
BBX 6 1 1 6
BITMAP
FC
ENDCHAR
STARTCHAR 002E
ENCODING 46
SWIDTH 238 0
DWIDTH 5 0
BBX 2 2 2 0
BITMAP
C0
C0
ENDCHAR
STARTCHAR 002F
ENCODING 47
SWIDTH 380 0
DWIDTH 8 0
BBX 7 17 0 -1
BITMAP
02
02
06
04
04
0C
08
08
18
10
10
30
20
20
40
40
C0
ENDCHAR
STARTCHAR 0030
ENCODING 48
SWIDTH 571 0
DWIDTH 12 0
BBX 10 15 1 0
BITMAP
3F80
4080
C0C0
C0C0
C0C0
C0C0
C0C0
C0C0
C0C0
C0C0
C0C0
C0C0
C0C0
4080
3F80
ENDCHAR
STARTCHAR 0031
ENCODING 49
SWIDTH 571 0
DWIDTH 12 0
BBX 8 15 2 0
BITMAP
78
08
08
08
08
08
08
08
08
08
08
08
08
08
FF
ENDCHAR
STARTCHAR 0032
ENCODING 50
SWIDTH 571 0
DWIDTH 12 0
BBX 10 15 1 0
BITMAP
7F80
0080
00C0
00C0
00C0
00C0
0180
3F00
7000
4000
C000
C000
C000
C000
FFC0
ENDCHAR
STARTCHAR 0033
ENCODING 51
SWIDTH 571 0
DWIDTH 12 0
BBX 9 15 2 0
BITMAP
FF00
0100
0180
0180
0180
0180
0100
7F00
0180
0180
0180
0180
0180
0100
FF00
ENDCHAR
STARTCHAR 0034
ENCODING 52
SWIDTH 571 0
DWIDTH 12 0
BBX 10 15 1 0
BITMAP
0600
0400
0C00
0800
1800
1000
30C0
20C0
60C0
60C0
40C0
FFC0
00C0
00C0
00C0
ENDCHAR
STARTCHAR 0035
ENCODING 53
SWIDTH 571 0
DWIDTH 12 0
BBX 10 15 1 0
BITMAP
FF80
C000
C000
C000
C000
C000
FF80
0080
00C0
00C0
00C0
00C0
00C0
0080
FF80
ENDCHAR
STARTCHAR 0036
ENCODING 54
SWIDTH 571 0
DWIDTH 12 0
BBX 10 15 1 0
BITMAP
3F80
6000
4000
C000
C000
C000
FF80
C080
C0C0
C0C0
C0C0
C0C0
C0C0
6080
3F80
ENDCHAR
STARTCHAR 0037
ENCODING 55
SWIDTH 571 0
DWIDTH 12 0
BBX 10 15 1 0
BITMAP
FFC0
00C0
00C0
00C0
0080
0180
0100
0300
0200
0600
0400
0C00
0800
1800
3000
ENDCHAR
STARTCHAR 0038
ENCODING 56
SWIDTH 571 0
DWIDTH 12 0
BBX 10 15 1 0
BITMAP
3F80
6080
C0C0
C0C0
C0C0
C0C0
4080
7F80
40C0
C0C0
C0C0
C0C0
C0C0
4080
3F80
ENDCHAR
STARTCHAR 0039
ENCODING 57
SWIDTH 571 0
DWIDTH 12 0
BBX 10 15 1 0
BITMAP
3F80
6080
C0C0
C0C0
C0C0
C0C0
C0C0
40C0
3FC0
00C0
00C0
00C0
00C0
0180
7F00
ENDCHAR
STARTCHAR 003A
ENCODING 58
SWIDTH 238 0
DWIDTH 5 0
BBX 2 11 2 0
BITMAP
C0
C0
00
00
00
00
00
00
00
C0
C0
ENDCHAR
STARTCHAR 003B
ENCODING 59
SWIDTH 238 0
DWIDTH 5 0
BBX 3 14 1 -3
BITMAP
60
60
00
00
00
00
00
00
00
40
40
C0
80
80
ENDCHAR
STARTCHAR 003C
ENCODING 60
SWIDTH 571 0
DWIDTH 12 0
BBX 10 9 1 3
BITMAP
01C0
0700
1C00
7000
C000
7000
1C00
0700
01C0
ENDCHAR
STARTCHAR 003D
ENCODING 61
SWIDTH 571 0
DWIDTH 12 0
BBX 10 6 1 4
BITMAP
FFC0
0000
0000
0000
0000
FFC0
ENDCHAR
STARTCHAR 003E
ENCODING 62
SWIDTH 571 0
DWIDTH 12 0
BBX 10 9 1 3
BITMAP
E000
3800
0E00
0380
0040
0380
0E00
3800
E000
ENDCHAR
STARTCHAR 003F
ENCODING 63
SWIDTH 476 0
DWIDTH 10 0
BBX 8 15 1 0
BITMAP
FE
03
01
01
01
01
01
1E
10
10
10
00
00
10
10
ENDCHAR
STARTCHAR 0040
ENCODING 64
SWIDTH 809 0
DWIDTH 17 0
BBX 13 17 2 -2
BITMAP
7FF8
C008
8008
8008
83F8
8418
8418
8418
8418
8418
8418
8418
83F8
8000
8000
C000
7FF0
ENDCHAR
STARTCHAR 0041
ENCODING 65
SWIDTH 619 0
DWIDTH 13 0
BBX 13 15 0 0
BITMAP
0700
0500
0D80
0D80
0880
18C0
18C0
1040
3060
3060
3FE0
6030
6030
4010
C018
ENDCHAR
STARTCHAR 0042
ENCODING 66
SWIDTH 619 0
DWIDTH 13 0
BBX 10 15 2 0
BITMAP
FF00
8080
80C0
80C0
80C0
80C0
8080
FF80
80C0
8040
8040
8040
8040
80C0
FF80
ENDCHAR
STARTCHAR 0043
ENCODING 67
SWIDTH 619 0
DWIDTH 13 0
BBX 10 15 2 0
BITMAP
7FC0
C000
8000
8000
8000
8000
8000
8000
8000
8000
8000
8000
8000
C000
7FC0
ENDCHAR
STARTCHAR 0044
ENCODING 68
SWIDTH 666 0
DWIDTH 14 0
BBX 11 15 2 0
BITMAP
FF00
81C0
8040
8060
8060
8060
8060
8060
8060
8060
8060
8060
8040
81C0
FF00
ENDCHAR
STARTCHAR 0045
ENCODING 69
SWIDTH 571 0
DWIDTH 12 0
BBX 9 15 2 0
BITMAP
FF80
8000
8000
8000
8000
8000
8000
FF80
8000
8000
8000
8000
8000
8000
FF80
ENDCHAR
STARTCHAR 0046
ENCODING 70
SWIDTH 571 0
DWIDTH 12 0
BBX 9 15 2 0
BITMAP
FF80
8000
8000
8000
8000
8000
8000
FF80
8000
8000
8000
8000
8000
8000
8000
ENDCHAR
STARTCHAR 0047
ENCODING 71
SWIDTH 666 0
DWIDTH 14 0
BBX 11 15 2 0
BITMAP
7FC0
C000
8000
8000
8000
8000
8000
87E0
8060
8060
8060
8060
8060
C060
7FE0
ENDCHAR
STARTCHAR 0048
ENCODING 72
SWIDTH 714 0
DWIDTH 15 0
BBX 11 15 2 0
BITMAP
8060
8060
8060
8060
8060
8060
8060
FFE0
8060
8060
8060
8060
8060
8060
8060
ENDCHAR
STARTCHAR 0049
ENCODING 73
SWIDTH 238 0
DWIDTH 5 0
BBX 1 15 2 0
BITMAP
80
80
80
80
80
80
80
80
80
80
80
80
80
80
80
ENDCHAR
STARTCHAR 004A
ENCODING 74
SWIDTH 619 0
DWIDTH 13 0
BBX 10 15 1 0
BITMAP
1FC0
00C0
00C0
00C0
00C0
00C0
00C0
00C0
00C0
00C0
C0C0
C0C0
C0C0
4080
7F80
ENDCHAR
STARTCHAR 004B
ENCODING 75
SWIDTH 619 0
DWIDTH 13 0
BBX 10 15 2 0
BITMAP
80C0
8180
8300
8600
8400
8800
9800
BC00
E400
C600
8300
8100
8180
80C0
8040
ENDCHAR
STARTCHAR 004C
ENCODING 76
SWIDTH 523 0
DWIDTH 11 0
BBX 9 15 2 0
BITMAP
8000
8000
8000
8000
8000
8000
8000
8000
8000
8000
8000
8000
8000
8000
FF80
ENDCHAR
STARTCHAR 004D
ENCODING 77
SWIDTH 857 0
DWIDTH 18 0
BBX 14 15 2 0
BITMAP
C00C
E01C
A014
A034
9024
9024
9864
8844
8CC4
8484
8784
8304
8304
8004
8004
ENDCHAR
STARTCHAR 004E
ENCODING 78
SWIDTH 714 0
DWIDTH 15 0
BBX 11 15 2 0
BITMAP
C020
C020
A020
B020
9020
9820
8C20
8420
8620
8320
8120
81A0
80A0
8060
8060
ENDCHAR
STARTCHAR 004F
ENCODING 79
SWIDTH 714 0
DWIDTH 15 0
BBX 11 15 2 0
BITMAP
7FC0
C060
8060
8020
8020
8020
8020
8020
8020
8020
8020
8020
8060
C060
7FC0
ENDCHAR
STARTCHAR 0050
ENCODING 80
SWIDTH 619 0
DWIDTH 13 0
BBX 10 15 2 0
BITMAP
FF80
80C0
80C0
80C0
80C0
80C0
80C0
80C0
FF80
8000
8000
8000
8000
8000
8000
ENDCHAR
STARTCHAR 0051
ENCODING 81
SWIDTH 714 0
DWIDTH 15 0
BBX 11 18 2 -3
BITMAP
7FC0
C060
8060
8020
8020
8020
8020
8020
8020
8020
8020
8020
8060
C060
7FC0
0100
0180
00C0
ENDCHAR
STARTCHAR 0052
ENCODING 82
SWIDTH 619 0
DWIDTH 13 0
BBX 10 15 2 0
BITMAP
FF80
80C0
80C0
80C0
80C0
80C0
80C0
80C0
FF80
8300
8100
8180
8080
80C0
8040
ENDCHAR
STARTCHAR 0053
ENCODING 83
SWIDTH 571 0
DWIDTH 12 0
BBX 10 15 1 0
BITMAP
7F80
4000
C000
C000
C000
C000
7000
1F80
0180
00C0
00C0
00C0
00C0
0080
FF80
ENDCHAR
STARTCHAR 0054
ENCODING 84
SWIDTH 571 0
DWIDTH 12 0
BBX 12 15 0 0
BITMAP
FFF0
0600
0600
0600
0600
0600
0600
0600
0600
0600
0600
0600
0600
0600
0600
ENDCHAR
STARTCHAR 0055
ENCODING 85
SWIDTH 666 0
DWIDTH 14 0
BBX 11 15 2 0
BITMAP
8060
8060
8060
8060
8060
8060
8060
8060
8060
8060
8060
8060
8060
C0C0
7F80
ENDCHAR
STARTCHAR 0056
ENCODING 86
SWIDTH 619 0
DWIDTH 13 0
BBX 12 15 0 0
BITMAP
C010
4010
6030
6020
2020
3060
3040
1040
10C0
1880
0880
0980
0D00
0500
0700
ENDCHAR
STARTCHAR 0057
ENCODING 87
SWIDTH 904 0
DWIDTH 19 0
BBX 17 15 1 0
BITMAP
800080
800080
C08080
C1C180
414100
414100
416100
632300
222300
222200
263200
341600
141600
141C00
1C1C00
ENDCHAR
STARTCHAR 0058
ENCODING 88
SWIDTH 619 0
DWIDTH 13 0
BBX 11 15 1 0
BITMAP
C060
40C0
6080
3180
1300
1A00
0E00
0C00
0E00
1B00
3100
2180
60C0
C040
8060
ENDCHAR
STARTCHAR 0059
ENCODING 89
SWIDTH 571 0
DWIDTH 12 0
BBX 12 15 0 0
BITMAP
C030
6060
2040
30C0
1080
1980
0900
0F00
0600
0600
0600
0600
0600
0600
0600
ENDCHAR
STARTCHAR 005A
ENCODING 90
SWIDTH 619 0
DWIDTH 13 0
BBX 10 15 1 0
BITMAP
FFC0
00C0
0080
0180
0300
0200
0600
0C00
0800
1800
3000
2000
6000
C000
FFC0
ENDCHAR
STARTCHAR 005B
ENCODING 91
SWIDTH 333 0
DWIDTH 7 0
BBX 4 20 2 -4
BITMAP
F0
80
80
80
80
80
80
80
80
80
80
80
80
80
80
80
80
80
80
F0
ENDCHAR
STARTCHAR 005C
ENCODING 92
SWIDTH 380 0
DWIDTH 8 0
BBX 7 17 0 -1
BITMAP
C0
40
40
20
20
30
10
10
18
08
08
0C
04
04
06
02
02
ENDCHAR
STARTCHAR 005D
ENCODING 93
SWIDTH 333 0
DWIDTH 7 0
BBX 4 20 1 -4
BITMAP
F0
10
10
10
10
10
10
10
10
10
10
10
10
10
10
10
10
10
10
F0
ENDCHAR
STARTCHAR 005E
ENCODING 94
SWIDTH 523 0
DWIDTH 11 0
BBX 9 8 1 7
BITMAP
0C00
1400
1600
2200
6300
4100
C180
8080
ENDCHAR
STARTCHAR 005F
ENCODING 95
SWIDTH 571 0
DWIDTH 12 0
BBX 10 1 1 -5
BITMAP
FFC0
ENDCHAR
STARTCHAR 0060
ENCODING 96
SWIDTH 523 0
DWIDTH 11 0
BBX 3 4 3 13
BITMAP
80
C0
60
20
ENDCHAR
STARTCHAR 0061
ENCODING 97
SWIDTH 523 0
DWIDTH 11 0
BBX 9 12 1 0
BITMAP
7F00
0100
0180
0180
0180
7F80
4180
C180
8180
C180
4180
7F80
ENDCHAR
STARTCHAR 0062
ENCODING 98
SWIDTH 571 0
DWIDTH 12 0
BBX 9 16 2 0
BITMAP
8000
8000
8000
8000
FE00
8100
8180
8180
8180
8180
8180
8180
8180
8180
8100
FE00
ENDCHAR
STARTCHAR 0063
ENCODING 99
SWIDTH 523 0
DWIDTH 11 0
BBX 8 12 2 0
BITMAP
7F
80
80
80
80
80
80
80
80
80
80
7F
ENDCHAR
STARTCHAR 0064
ENCODING 100
SWIDTH 571 0
DWIDTH 12 0
BBX 8 16 2 0
BITMAP
01
01
01
01
7F
81
81
81
81
81
81
81
81
81
81
7F
ENDCHAR
STARTCHAR 0065
ENCODING 101
SWIDTH 571 0
DWIDTH 12 0
BBX 8 12 2 0
BITMAP
7E
81
81
81
81
FF
80
80
80
80
80
7F
ENDCHAR
STARTCHAR 0066
ENCODING 102
SWIDTH 380 0
DWIDTH 8 0
BBX 5 16 2 0
BITMAP
78
80
80
80
F8
80
80
80
80
80
80
80
80
80
80
80
ENDCHAR
STARTCHAR 0067
ENCODING 103
SWIDTH 571 0
DWIDTH 12 0
BBX 8 17 2 -5
BITMAP
7F
81
81
81
81
81
81
81
81
81
81
7F
01
01
01
01
FE
ENDCHAR
STARTCHAR 0068
ENCODING 104
SWIDTH 571 0
DWIDTH 12 0
BBX 9 16 2 0
BITMAP
8000
8000
8000
8000
FE00
8100
8180
8180
8180
8180
8180
8180
8180
8180
8180
8180
ENDCHAR
STARTCHAR 0069
ENCODING 105
SWIDTH 238 0
DWIDTH 5 0
BBX 1 16 2 0
BITMAP
80
80
00
00
80
80
80
80
80
80
80
80
80
80
80
80
ENDCHAR
STARTCHAR 006A
ENCODING 106
SWIDTH 238 0
DWIDTH 5 0
BBX 3 21 0 -5
BITMAP
20
20
00
00
20
20
20
20
20
20
20
20
20
20
20
20
20
20
20
60
C0
ENDCHAR
STARTCHAR 006B
ENCODING 107
SWIDTH 523 0
DWIDTH 11 0
BBX 8 16 2 0
BITMAP
80
80
80
80
83
86
8C
88
90
B0
F8
CC
84
86
82
83
ENDCHAR
STARTCHAR 006C
ENCODING 108
SWIDTH 238 0
DWIDTH 5 0
BBX 3 16 2 0
BITMAP
80
80
80
80
80
80
80
80
80
80
80
80
80
80
80
60
ENDCHAR
STARTCHAR 006D
ENCODING 109
SWIDTH 904 0
DWIDTH 19 0
BBX 15 12 2 0
BITMAP
FFFC
8106
8102
8102
8102
8102
8102
8102
8102
8102
8102
8102
ENDCHAR
STARTCHAR 006E
ENCODING 110
SWIDTH 571 0
DWIDTH 12 0
BBX 9 12 2 0
BITMAP
FE00
8100
8180
8180
8180
8180
8180
8180
8180
8180
8180
8180
ENDCHAR
STARTCHAR 006F
ENCODING 111
SWIDTH 571 0
DWIDTH 12 0
BBX 9 12 2 0
BITMAP
7E00
8100
8180
8180
8180
8180
8180
8180
8180
8180
8100
7E00
ENDCHAR
STARTCHAR 0070
ENCODING 112
SWIDTH 571 0
DWIDTH 12 0
BBX 9 17 2 -5
BITMAP
FE00
8100
8180
8180
8180
8180
8180
8180
8180
8180
8100
FE00
8000
8000
8000
8000
8000
ENDCHAR
STARTCHAR 0071
ENCODING 113
SWIDTH 571 0
DWIDTH 12 0
BBX 8 17 2 -5
BITMAP
7F
81
81
81
81
81
81
81
81
81
81
7F
01
01
01
01
01
ENDCHAR
STARTCHAR 0072
ENCODING 114
SWIDTH 380 0
DWIDTH 8 0
BBX 5 12 2 0
BITMAP
F8
80
80
80
80
80
80
80
80
80
80
80
ENDCHAR
STARTCHAR 0073
ENCODING 115
SWIDTH 476 0
DWIDTH 10 0
BBX 8 12 1 0
BITMAP
7F
40
C0
C0
40
7C
07
01
01
01
03
FE
ENDCHAR
STARTCHAR 0074
ENCODING 116
SWIDTH 380 0
DWIDTH 8 0
BBX 5 15 2 0
BITMAP
80
80
80
F8
80
80
80
80
80
80
80
80
80
C0
78
ENDCHAR
STARTCHAR 0075
ENCODING 117
SWIDTH 571 0
DWIDTH 12 0
BBX 9 12 2 0
BITMAP
8180
8180
8180
8180
8180
8180
8180
8180
8180
8180
C180
7F80
ENDCHAR
STARTCHAR 0076
ENCODING 118
SWIDTH 523 0
DWIDTH 11 0
BBX 10 12 0 0
BITMAP
C040
4040
60C0
6080
2080
2180
3100
1100
1300
1A00
0A00
0E00
ENDCHAR
STARTCHAR 0077
ENCODING 119
SWIDTH 761 0
DWIDTH 16 0
BBX 16 12 0 0
BITMAP
C183
4182
41C2
6342
6246
2246
2264
2624
3424
142C
1438
1C18
ENDCHAR
STARTCHAR 0078
ENCODING 120
SWIDTH 523 0
DWIDTH 11 0
BBX 9 12 1 0
BITMAP
8180
4100
6200
2600
1400
1800
1C00
3400
2600
6300
C100
8180
ENDCHAR
STARTCHAR 0079
ENCODING 121
SWIDTH 523 0
DWIDTH 11 0
BBX 10 17 0 -5
BITMAP
C040
4040
60C0
6080
2080
2180
3100
1100
1300
1A00
0A00
0E00
0400
0400
0C00
0800
0800
ENDCHAR
STARTCHAR 007A
ENCODING 122
SWIDTH 523 0
DWIDTH 11 0
BBX 9 12 1 0
BITMAP
FF00
0300
0200
0600
0C00
0800
1800
3000
2000
6000
C000
FF80
ENDCHAR
STARTCHAR 007B
ENCODING 123
SWIDTH 380 0
DWIDTH 8 0
BBX 6 20 1 -4
BITMAP
1C
30
20
20
20
20
20
20
60
C0
C0
60
20
20
20
20
20
20
30
1C
ENDCHAR
STARTCHAR 007C
ENCODING 124
SWIDTH 285 0
DWIDTH 6 0
BBX 1 21 2 -5
BITMAP
80
80
80
80
80
80
80
80
80
80
80
80
80
80
80
80
80
80
80
80
80
ENDCHAR
STARTCHAR 007D
ENCODING 125
SWIDTH 380 0
DWIDTH 8 0
BBX 6 20 1 -4
BITMAP
E0
20
30
30
30
30
30
30
18
0C
08
18
30
30
30
30
30
30
20
E0
ENDCHAR
STARTCHAR 007E
ENCODING 126
SWIDTH 571 0
DWIDTH 12 0
BBX 10 4 1 5
BITMAP
3840
68C0
C580
8300
ENDCHAR
STARTCHAR 00A0
ENCODING 160
SWIDTH 238 0
DWIDTH 5 0
BBX 0 0 0 0
BITMAP
ENDCHAR
STARTCHAR 00A1
ENCODING 161
SWIDTH 238 0
DWIDTH 5 0
BBX 2 15 2 -3
BITMAP
C0
C0
00
00
80
80
80
80
80
80
80
80
80
80
80
ENDCHAR
STARTCHAR 00A2
ENCODING 162
SWIDTH 571 0
DWIDTH 12 0
BBX 8 18 2 -3
BITMAP
08
08
08
7F
C0
80
80
80
80
80
80
80
80
C0
7F
08
08
08
ENDCHAR
STARTCHAR 00A3
ENCODING 163
SWIDTH 571 0
DWIDTH 12 0
BBX 10 15 1 0
BITMAP
1FC0
1000
3000
3000
3000
3000
3000
FF00
3000
3000
3000
3000
3000
3000
FFC0
ENDCHAR
STARTCHAR 00A4
ENCODING 164
SWIDTH 571 0
DWIDTH 12 0
BBX 10 11 1 2
BITMAP
4040
C0C0
3F80
2100
2100
2100
2100
2100
3F80
C0C0
4040
ENDCHAR
STARTCHAR 00A5
ENCODING 165
SWIDTH 571 0
DWIDTH 12 0
BBX 10 15 1 0
BITMAP
8040
C0C0
4080
2180
3100
1300
1E00
0C00
7F80
0C00
7F80
0C00
0C00
0C00
0C00
ENDCHAR
STARTCHAR 00A6
ENCODING 166
SWIDTH 285 0
DWIDTH 6 0
BBX 1 21 2 -5
BITMAP
80
80
80
80
80
80
80
80
00
00
00
00
00
80
80
80
80
80
80
80
80
ENDCHAR
STARTCHAR 00A7
ENCODING 167
SWIDTH 523 0
DWIDTH 11 0
BBX 8 17 2 -2
BITMAP
7E
C0
80
80
C0
FC
86
83
83
83
C3
7E
06
03
03
02
FE
ENDCHAR
STARTCHAR 00A8
ENCODING 168
SWIDTH 523 0
DWIDTH 11 0
BBX 5 2 3 14
BITMAP
98
98
ENDCHAR
STARTCHAR 00A9
ENCODING 169
SWIDTH 857 0
DWIDTH 18 0
BBX 14 15 2 0
BITMAP
FFF8
8004
8004
8FC4
8804
9804
9804
9804
9804
9804
8804
8FC4
8004
8004
FFF8
ENDCHAR
STARTCHAR 00AA
ENCODING 170
SWIDTH 380 0
DWIDTH 8 0
BBX 6 9 1 6
BITMAP
FC
04
04
04
FC
84
84
84
FC
ENDCHAR
STARTCHAR 00AB
ENCODING 171
SWIDTH 476 0
DWIDTH 10 0
BBX 8 9 1 2
BITMAP
11
22
66
CC
88
CC
66
22
11
ENDCHAR
STARTCHAR 00AC
ENCODING 172
SWIDTH 571 0
DWIDTH 12 0
BBX 10 6 1 3
BITMAP
FFC0
0040
0040
0040
0040
0040
ENDCHAR
STARTCHAR 00AD
ENCODING 173
SWIDTH 333 0
DWIDTH 7 0
BBX 6 1 1 6
BITMAP
FC
ENDCHAR
STARTCHAR 00AE
ENCODING 174
SWIDTH 857 0
DWIDTH 18 0
BBX 14 15 2 0
BITMAP
FFF8
8004
8004
8F84
8844
8844
8844
8F84
8884
8884
88C4
8844
8004
8004
FFF8
ENDCHAR
STARTCHAR 00AF
ENCODING 175
SWIDTH 523 0
DWIDTH 11 0
BBX 5 1 3 14
BITMAP
F8
ENDCHAR
STARTCHAR 00B0
ENCODING 176
SWIDTH 428 0
DWIDTH 9 0
BBX 6 7 1 8
BITMAP
7C
84
84
84
84
84
7C
ENDCHAR
STARTCHAR 00B1
ENCODING 177
SWIDTH 571 0
DWIDTH 12 0
BBX 10 12 1 0
BITMAP
0C00
0C00
0C00
0C00
FFC0
0C00
0C00
0C00
0C00
0000
0000
FFC0
ENDCHAR
STARTCHAR 00B2
ENCODING 178
SWIDTH 380 0
DWIDTH 8 0
BBX 6 9 1 6
BITMAP
F8
04
04
0C
78
80
80
80
FC
ENDCHAR
STARTCHAR 00B3
ENCODING 179
SWIDTH 380 0
DWIDTH 8 0
BBX 6 9 1 6
BITMAP
F8
04
04
0C
78
04
04
04
F8
ENDCHAR
STARTCHAR 00B4
ENCODING 180
SWIDTH 523 0
DWIDTH 11 0
BBX 4 4 4 13
BITMAP
30
20
40
80
ENDCHAR
STARTCHAR 00B5
ENCODING 181
SWIDTH 571 0
DWIDTH 12 0
BBX 9 17 2 -5
BITMAP
8180
8180
8180
8180
8180
8180
8180
8180
8180
8180
8100
FE00
8000
8000
8000
8000
8000
ENDCHAR
STARTCHAR 00B6
ENCODING 182
SWIDTH 571 0
DWIDTH 12 0
BBX 8 19 2 -4
BITMAP
7B
FB
FB
FB
FB
FB
FB
FB
7B
03
03
03
03
03
03
03
03
03
03
ENDCHAR
STARTCHAR 00B7
ENCODING 183
SWIDTH 238 0
DWIDTH 5 0
BBX 2 2 2 6
BITMAP
C0
C0
ENDCHAR
STARTCHAR 00B8
ENCODING 184
SWIDTH 523 0
DWIDTH 11 0
BBX 4 5 3 -4
BITMAP
10
10
10
10
E0
ENDCHAR
STARTCHAR 00B9
ENCODING 185
SWIDTH 380 0
DWIDTH 8 0
BBX 6 9 1 6
BITMAP
70
30
30
30
30
30
30
30
FC
ENDCHAR
STARTCHAR 00BA
ENCODING 186
SWIDTH 428 0
DWIDTH 9 0
BBX 7 9 1 6
BITMAP
7C
82
82
82
82
82
82
82
7C
ENDCHAR
STARTCHAR 00BB
ENCODING 187
SWIDTH 476 0
DWIDTH 10 0
BBX 8 9 1 2
BITMAP
88
44
66
33
11
33
66
44
88
ENDCHAR
STARTCHAR 00BC
ENCODING 188
SWIDTH 857 0
DWIDTH 18 0
BBX 16 15 1 0
BITMAP
7010
3010
3020
3020
3040
3040
30CC
3088
FD88
0111
0311
0221
063F
0401
0C01
ENDCHAR
STARTCHAR 00BD
ENCODING 189
SWIDTH 904 0
DWIDTH 19 0
BBX 17 15 1 0
BITMAP
701000
301000
302000
302000
304000
304000
30DF00
308080
FD8080
010180
030F00
021000
061000
041000
0C1F80
ENDCHAR
STARTCHAR 00BE
ENCODING 190
SWIDTH 809 0
DWIDTH 17 0
BBX 15 15 1 0
BITMAP
F810
0420
0420
0C60
7840
04C0
0488
0588
F910
0312
0222
0622
047E
0C02
0802
ENDCHAR
STARTCHAR 00BF
ENCODING 191
SWIDTH 476 0
DWIDTH 10 0
BBX 9 15 1 -3
BITMAP
0C00
0C00
0000
0000
0C00
0C00
0C00
7C00
C000
8000
8000
8000
8000
C000
7F80
ENDCHAR
STARTCHAR 00C0
ENCODING 192
SWIDTH 619 0
DWIDTH 13 0
BBX 13 20 0 0
BITMAP
0800
0400
0200
0300
0000
0700
0500
0D80
0D80
0880
18C0
18C0
1040
3060
3060
3FE0
6030
6030
4010
C018
ENDCHAR
STARTCHAR 00C1
ENCODING 193
SWIDTH 619 0
DWIDTH 13 0
BBX 13 20 0 0
BITMAP
0080
0100
0200
0600
0000
0700
0500
0D80
0D80
0880
18C0
18C0
1040
3060
3060
3FE0
6030
6030
4010
C018
ENDCHAR
STARTCHAR 00C2
ENCODING 194
SWIDTH 619 0
DWIDTH 13 0
BBX 13 20 0 0
BITMAP
0200
0700
0D80
0880
0000
0700
0500
0D80
0D80
0880
18C0
18C0
1040
3060
3060
3FE0
6030
6030
4010
C018
ENDCHAR
STARTCHAR 00C3
ENCODING 195
SWIDTH 619 0
DWIDTH 13 0
BBX 13 19 0 0
BITMAP
0440
0A80
1100
0000
0700
0500
0D80
0D80
0880
18C0
18C0
1040
3060
3060
3FE0
6030
6030
4010
C018
ENDCHAR
STARTCHAR 00C4
ENCODING 196
SWIDTH 619 0
DWIDTH 13 0
BBX 13 19 0 0
BITMAP
0880
0880
0000
0000
0700
0500
0D80
0D80
0880
18C0
18C0
1040
3060
3060
3FE0
6030
6030
4010
C018
ENDCHAR
STARTCHAR 00C5
ENCODING 197
SWIDTH 619 0
DWIDTH 13 0
BBX 13 20 0 0
BITMAP
0700
0880
0880
0700
0000
0700
0500
0D80
0D80
0880
18C0
18C0
1040
3060
3060
3FE0
6030
6030
4010
C018
ENDCHAR
STARTCHAR 00C6
ENCODING 198
SWIDTH 857 0
DWIDTH 18 0
BBX 17 15 0 0
BITMAP
07FF80
044000
0C4000
0C4000
084000
184000
184000
107F80
304000
304000
3FC000
604000
604000
404000
C07F80
ENDCHAR
STARTCHAR 00C7
ENCODING 199
SWIDTH 619 0
DWIDTH 13 0
BBX 10 19 2 -4
BITMAP
7FC0
C000
8000
8000
8000
8000
8000
8000
8000
8000
8000
8000
8000
C000
7FC0
0200
0200
0200
1C00
ENDCHAR
STARTCHAR 00C8
ENCODING 200
SWIDTH 571 0
DWIDTH 12 0
BBX 9 20 2 0
BITMAP
3000
1000
0800
0400
0000
FF80
8000
8000
8000
8000
8000
8000
FF80
8000
8000
8000
8000
8000
8000
FF80
ENDCHAR
STARTCHAR 00C9
ENCODING 201
SWIDTH 571 0
DWIDTH 12 0
BBX 9 20 2 0
BITMAP
0200
0400
0C00
1800
0000
FF80
8000
8000
8000
8000
8000
8000
FF80
8000
8000
8000
8000
8000
8000
FF80
ENDCHAR
STARTCHAR 00CA
ENCODING 202
SWIDTH 571 0
DWIDTH 12 0
BBX 9 20 2 0
BITMAP
0800
1C00
3600
2200
0000
FF80
8000
8000
8000
8000
8000
8000
FF80
8000
8000
8000
8000
8000
8000
FF80
ENDCHAR
STARTCHAR 00CB
ENCODING 203
SWIDTH 571 0
DWIDTH 12 0
BBX 9 19 2 0
BITMAP
3200
3200
0000
0000
FF80
8000
8000
8000
8000
8000
8000
FF80
8000
8000
8000
8000
8000
8000
FF80
ENDCHAR
STARTCHAR 00CC
ENCODING 204
SWIDTH 238 0
DWIDTH 5 0
BBX 4 20 0 0
BITMAP
C0
40
20
10
00
20
20
20
20
20
20
20
20
20
20
20
20
20
20
20
ENDCHAR
STARTCHAR 00CD
ENCODING 205
SWIDTH 238 0
DWIDTH 5 0
BBX 4 20 1 0
BITMAP
10
20
60
C0
00
40
40
40
40
40
40
40
40
40
40
40
40
40
40
40
ENDCHAR
STARTCHAR 00CE
ENCODING 206
SWIDTH 238 0
DWIDTH 5 0
BBX 5 20 0 0
BITMAP
20
70
D8
88
00
20
20
20
20
20
20
20
20
20
20
20
20
20
20
20
ENDCHAR
STARTCHAR 00CF
ENCODING 207
SWIDTH 238 0
DWIDTH 5 0
BBX 5 19 0 0
BITMAP
C8
C8
00
00
20
20
20
20
20
20
20
20
20
20
20
20
20
20
20
ENDCHAR
STARTCHAR 00D0
ENCODING 208
SWIDTH 666 0
DWIDTH 14 0
BBX 13 15 0 0
BITMAP
3FE0
3030
3018
3018
3018
3018
3018
FF18
3018
3018
3018
3018
3018
3030
3FE0
ENDCHAR
STARTCHAR 00D1
ENCODING 209
SWIDTH 714 0
DWIDTH 15 0
BBX 11 19 2 0
BITMAP
0880
1500
1300
0000
C020
C020
A020
B020
9020
9820
8C20
8420
8620
8320
8120
81A0
80A0
8060
8060
ENDCHAR
STARTCHAR 00D2
ENCODING 210
SWIDTH 714 0
DWIDTH 15 0
BBX 11 20 2 0
BITMAP
1000
1800
0C00
0400
0000
7FC0
C060
8060
8020
8020
8020
8020
8020
8020
8020
8020
8020
8060
C060
7FC0
ENDCHAR
STARTCHAR 00D3
ENCODING 211
SWIDTH 714 0
DWIDTH 15 0
BBX 11 20 2 0
BITMAP
0300
0200
0400
0800
0000
7FC0
C060
8060
8020
8020
8020
8020
8020
8020
8020
8020
8020
8060
C060
7FC0
ENDCHAR
STARTCHAR 00D4
ENCODING 212
SWIDTH 714 0
DWIDTH 15 0
BBX 11 20 2 0
BITMAP
0400
0E00
1B00
1100
0000
7FC0
C060
8060
8020
8020
8020
8020
8020
8020
8020
8020
8020
8060
C060
7FC0
ENDCHAR
STARTCHAR 00D5
ENCODING 213
SWIDTH 714 0
DWIDTH 15 0
BBX 11 19 2 0
BITMAP
1900
1500
2600
0000
7FC0
C060
8060
8020
8020
8020
8020
8020
8020
8020
8020
8020
8060
C060
7FC0
ENDCHAR
STARTCHAR 00D6
ENCODING 214
SWIDTH 714 0
DWIDTH 15 0
BBX 11 19 2 0
BITMAP
1300
1300
0000
0000
7FC0
C060
8060
8020
8020
8020
8020
8020
8020
8020
8020
8020
8060
C060
7FC0
ENDCHAR
STARTCHAR 00D7
ENCODING 215
SWIDTH 571 0
DWIDTH 12 0
BBX 8 9 2 3
BITMAP
81
C3
66
3C
18
3C
66
C3
81
ENDCHAR
STARTCHAR 00D8
ENCODING 216
SWIDTH 714 0
DWIDTH 15 0
BBX 11 15 2 0
BITMAP
7FC0
C060
8060
8060
80A0
8120
8220
8420
8820
B020
E020
C020
8060
C060
7FC0
ENDCHAR
STARTCHAR 00D9
ENCODING 217
SWIDTH 666 0
DWIDTH 14 0
BBX 11 20 2 0
BITMAP
1000
1800
0C00
0400
0000
8060
8060
8060
8060
8060
8060
8060
8060
8060
8060
8060
8060
8060
C0C0
7F80
ENDCHAR
STARTCHAR 00DA
ENCODING 218
SWIDTH 666 0
DWIDTH 14 0
BBX 11 20 2 0
BITMAP
0300
0600
0400
0800
0000
8060
8060
8060
8060
8060
8060
8060
8060
8060
8060
8060
8060
8060
C0C0
7F80
ENDCHAR
STARTCHAR 00DB
ENCODING 219
SWIDTH 666 0
DWIDTH 14 0
BBX 11 20 2 0
BITMAP
0400
0E00
1200
3100
0000
8060
8060
8060
8060
8060
8060
8060
8060
8060
8060
8060
8060
8060
C0C0
7F80
ENDCHAR
STARTCHAR 00DC
ENCODING 220
SWIDTH 666 0
DWIDTH 14 0
BBX 11 19 2 0
BITMAP
1300
1300
0000
0000
8060
8060
8060
8060
8060
8060
8060
8060
8060
8060
8060
8060
8060
C0C0
7F80
ENDCHAR
STARTCHAR 00DD
ENCODING 221
SWIDTH 571 0
DWIDTH 12 0
BBX 12 20 0 0
BITMAP
0100
0300
0600
0400
0000
C030
6060
2040
30C0
1080
1980
0900
0F00
0600
0600
0600
0600
0600
0600
0600
ENDCHAR
STARTCHAR 00DE
ENCODING 222
SWIDTH 619 0
DWIDTH 13 0
BBX 10 15 2 0
BITMAP
8000
8000
8000
FF80
80C0
80C0
80C0
80C0
80C0
80C0
80C0
FF80
8000
8000
8000
ENDCHAR
STARTCHAR 00DF
ENCODING 223
SWIDTH 619 0
DWIDTH 13 0
BBX 9 16 2 0
BITMAP
7E00
C100
8180
8180
8180
8180
8100
9E00
8180
8080
8080
8080
8080
8080
8180
9F00
ENDCHAR
STARTCHAR 00E0
ENCODING 224
SWIDTH 523 0
DWIDTH 11 0
BBX 9 17 1 0
BITMAP
3000
1000
0800
0400
0000
7F00
0100
0180
0180
0180
7F80
4180
C180
8180
C180
4180
7F80
ENDCHAR
STARTCHAR 00E1
ENCODING 225
SWIDTH 523 0
DWIDTH 11 0
BBX 9 17 1 0
BITMAP
0200
0600
0C00
0800
0000
7F00
0100
0180
0180
0180
7F80
4180
C180
8180
C180
4180
7F80
ENDCHAR
STARTCHAR 00E2
ENCODING 226
SWIDTH 523 0
DWIDTH 11 0
BBX 9 17 1 0
BITMAP
0800
1C00
3600
2200
0000
7F00
0100
0180
0180
0180
7F80
4180
C180
8180
C180
4180
7F80
ENDCHAR
STARTCHAR 00E3
ENCODING 227
SWIDTH 523 0
DWIDTH 11 0
BBX 9 17 1 0
BITMAP
1900
2A00
2600
0000
0000
7F00
0100
0180
0180
0180
7F80
4180
C180
8180
C180
4180
7F80
ENDCHAR
STARTCHAR 00E4
ENCODING 228
SWIDTH 523 0
DWIDTH 11 0
BBX 9 16 1 0
BITMAP
3200
3200
0000
0000
7F00
0100
0180
0180
0180
7F80
4180
C180
8180
C180
4180
7F80
ENDCHAR
STARTCHAR 00E5
ENCODING 229
SWIDTH 523 0
DWIDTH 11 0
BBX 9 17 1 0
BITMAP
1E00
1200
1200
1E00
0000
7F00
0100
0180
0180
0180
7F80
4180
C180
8180
C180
4180
7F80
ENDCHAR
STARTCHAR 00E6
ENCODING 230
SWIDTH 857 0
DWIDTH 18 0
BBX 16 12 1 0
BITMAP
7EFE
0183
0181
0181
0181
7FFF
4180
C180
8180
C180
4180
7EFE
ENDCHAR
STARTCHAR 00E7
ENCODING 231
SWIDTH 523 0
DWIDTH 11 0
BBX 8 16 2 -4
BITMAP
7F
80
80
80
80
80
80
80
80
80
80
7F
04
04
0C
38
ENDCHAR
STARTCHAR 00E8
ENCODING 232
SWIDTH 571 0
DWIDTH 12 0
BBX 8 17 2 0
BITMAP
20
30
18
08
00
7E
81
81
81
81
FF
80
80
80
80
80
7F
ENDCHAR
STARTCHAR 00E9
ENCODING 233
SWIDTH 571 0
DWIDTH 12 0
BBX 8 17 2 0
BITMAP
04
0C
18
10
00
7E
81
81
81
81
FF
80
80
80
80
80
7F
ENDCHAR
STARTCHAR 00EA
ENCODING 234
SWIDTH 571 0
DWIDTH 12 0
BBX 8 17 2 0
BITMAP
10
18
24
42
00
7E
81
81
81
81
FF
80
80
80
80
80
7F
ENDCHAR
STARTCHAR 00EB
ENCODING 235
SWIDTH 571 0
DWIDTH 12 0
BBX 8 16 2 0
BITMAP
66
66
00
00
7E
81
81
81
81
FF
80
80
80
80
80
7F
ENDCHAR
STARTCHAR 00EC
ENCODING 236
SWIDTH 238 0
DWIDTH 5 0
BBX 4 17 0 0
BITMAP
80
40
60
30
00
20
20
20
20
20
20
20
20
20
20
20
20
ENDCHAR
STARTCHAR 00ED
ENCODING 237
SWIDTH 238 0
DWIDTH 5 0
BBX 4 17 1 0
BITMAP
30
20
40
80
00
40
40
40
40
40
40
40
40
40
40
40
40
ENDCHAR
STARTCHAR 00EE
ENCODING 238
SWIDTH 238 0
DWIDTH 5 0
BBX 5 17 0 0
BITMAP
20
70
D8
88
00
20
20
20
20
20
20
20
20
20
20
20
20
ENDCHAR
STARTCHAR 00EF
ENCODING 239
SWIDTH 238 0
DWIDTH 5 0
BBX 5 16 0 0
BITMAP
98
98
00
00
20
20
20
20
20
20
20
20
20
20
20
20
ENDCHAR
STARTCHAR 00F0
ENCODING 240
SWIDTH 571 0
DWIDTH 12 0
BBX 9 16 2 0
BITMAP
1800
0980
0600
3E00
0200
0100
7F80
8180
8180
8180
8180
8180
8180
8180
8100
7F00
ENDCHAR
STARTCHAR 00F1
ENCODING 241
SWIDTH 571 0
DWIDTH 12 0
BBX 9 17 2 0
BITMAP
3200
2A00
4C00
0000
0000
FE00
8100
8180
8180
8180
8180
8180
8180
8180
8180
8180
8180
ENDCHAR
STARTCHAR 00F2
ENCODING 242
SWIDTH 571 0
DWIDTH 12 0
BBX 9 17 2 0
BITMAP
2000
3000
1800
0800
0000
7E00
8100
8180
8180
8180
8180
8180
8180
8180
8180
8100
7E00
ENDCHAR
STARTCHAR 00F3
ENCODING 243
SWIDTH 571 0
DWIDTH 12 0
BBX 9 17 2 0
BITMAP
0400
0C00
0800
1000
0000
7E00
8100
8180
8180
8180
8180
8180
8180
8180
8180
8100
7E00
ENDCHAR
STARTCHAR 00F4
ENCODING 244
SWIDTH 571 0
DWIDTH 12 0
BBX 9 17 2 0
BITMAP
0800
1800
2400
6200
0000
7E00
8100
8180
8180
8180
8180
8180
8180
8180
8180
8100
7E00
ENDCHAR
STARTCHAR 00F5
ENCODING 245
SWIDTH 571 0
DWIDTH 12 0
BBX 9 17 2 0
BITMAP
3200
2A00
4C00
0000
0000
7E00
8100
8180
8180
8180
8180
8180
8180
8180
8180
8100
7E00
ENDCHAR
STARTCHAR 00F6
ENCODING 246
SWIDTH 571 0
DWIDTH 12 0
BBX 9 16 2 0
BITMAP
2600
2600
0000
0000
7E00
8100
8180
8180
8180
8180
8180
8180
8180
8180
8100
7E00
ENDCHAR
STARTCHAR 00F7
ENCODING 247
SWIDTH 571 0
DWIDTH 12 0
BBX 10 9 1 3
BITMAP
0C00
0C00
0000
0000
FFC0
0000
0000
0C00
0C00
ENDCHAR
STARTCHAR 00F8
ENCODING 248
SWIDTH 571 0
DWIDTH 12 0
BBX 9 12 2 0
BITMAP
7E00
8100
8180
8380
8580
8980
9180
A180
C180
8180
8100
7E00
ENDCHAR
STARTCHAR 00F9
ENCODING 249
SWIDTH 571 0
DWIDTH 12 0
BBX 9 17 2 0
BITMAP
2000
3000
1800
0800
0000
8180
8180
8180
8180
8180
8180
8180
8180
8180
8180
C180
7F80
ENDCHAR
STARTCHAR 00FA
ENCODING 250
SWIDTH 571 0
DWIDTH 12 0
BBX 9 17 2 0
BITMAP
0400
0C00
0800
1000
0000
8180
8180
8180
8180
8180
8180
8180
8180
8180
8180
C180
7F80
ENDCHAR
STARTCHAR 00FB
ENCODING 251
SWIDTH 571 0
DWIDTH 12 0
BBX 9 17 2 0
BITMAP
0800
1800
2400
6200
0000
8180
8180
8180
8180
8180
8180
8180
8180
8180
8180
C180
7F80
ENDCHAR
STARTCHAR 00FC
ENCODING 252
SWIDTH 571 0
DWIDTH 12 0
BBX 9 16 2 0
BITMAP
2600
2600
0000
0000
8180
8180
8180
8180
8180
8180
8180
8180
8180
8180
C180
7F80
ENDCHAR
STARTCHAR 00FD
ENCODING 253
SWIDTH 523 0
DWIDTH 11 0
BBX 10 22 0 -5
BITMAP
0300
0200
0400
0800
0000
C040
4040
60C0
6080
2080
2180
3100
1100
1300
1A00
0A00
0E00
0400
0400
0C00
0800
0800
ENDCHAR
STARTCHAR 00FE
ENCODING 254
SWIDTH 571 0
DWIDTH 12 0
BBX 9 21 2 -5
BITMAP
8000
8000
8000
8000
FE00
8100
8180
8180
8180
8180
8180
8180
8180
8180
8100
FE00
8000
8000
8000
8000
8000
ENDCHAR
STARTCHAR 00FF
ENCODING 255
SWIDTH 523 0
DWIDTH 11 0
BBX 10 21 0 -5
BITMAP
1300
1300
0000
0000
C040
4040
60C0
6080
2080
2180
3100
1100
1300
1A00
0A00
0E00
0400
0400
0C00
0800
0800
ENDCHAR
STARTCHAR 0100
ENCODING 256
SWIDTH 619 0
DWIDTH 13 0
BBX 13 18 0 0
BITMAP
0F80
0000
0000
0700
0500
0D80
0D80
0880
18C0
18C0
1040
3060
3060
3FE0
6030
6030
4010
C018
ENDCHAR
STARTCHAR 0101
ENCODING 257
SWIDTH 523 0
DWIDTH 11 0
BBX 9 15 1 0
BITMAP
3E00
0000
0000
7F00
0100
0180
0180
0180
7F80
4180
C180
8180
C180
4180
7F80
ENDCHAR
STARTCHAR 0102
ENCODING 258
SWIDTH 619 0
DWIDTH 13 0
BBX 13 19 0 0
BITMAP
0880
0880
0F80
0000
0700
0500
0D80
0D80
0880
18C0
18C0
1040
3060
3060
3FE0
6030
6030
4010
C018
ENDCHAR
STARTCHAR 0103
ENCODING 259
SWIDTH 523 0
DWIDTH 11 0
BBX 9 17 1 0
BITMAP
2200
2200
3E00
0000
0000
7F00
0100
0180
0180
0180
7F80
4180
C180
8180
C180
4180
7F80
ENDCHAR
STARTCHAR 0104
ENCODING 260
SWIDTH 619 0
DWIDTH 13 0
BBX 13 19 0 -4
BITMAP
0700
0500
0D80
0D80
0880
18C0
18C0
1040
3060
3060
3FE0
6030
6030
4010
C078
0040
0040
0040
0078
ENDCHAR
STARTCHAR 0105
ENCODING 261
SWIDTH 523 0
DWIDTH 11 0
BBX 9 16 1 -4
BITMAP
7F00
0100
0180
0180
0180
7F80
4180
C180
8180
C180
4180
7F80
0400
0400
0400
0780
ENDCHAR
STARTCHAR 0106
ENCODING 262
SWIDTH 619 0
DWIDTH 13 0
BBX 10 20 2 0
BITMAP
0300
0600
0400
0800
0000
7FC0
C000
8000
8000
8000
8000
8000
8000
8000
8000
8000
8000
8000
C000
7FC0
ENDCHAR
STARTCHAR 0107
ENCODING 263
SWIDTH 523 0
DWIDTH 11 0
BBX 8 17 2 0
BITMAP
04
0C
18
10
00
7F
80
80
80
80
80
80
80
80
80
80
7F
ENDCHAR
STARTCHAR 010C
ENCODING 268
SWIDTH 619 0
DWIDTH 13 0
BBX 10 20 2 0
BITMAP
3100
1200
0C00
0400
0000
7FC0
C000
8000
8000
8000
8000
8000
8000
8000
8000
8000
8000
8000
C000
7FC0
ENDCHAR
STARTCHAR 010D
ENCODING 269
SWIDTH 523 0
DWIDTH 11 0
BBX 8 17 2 0
BITMAP
42
24
18
10
00
7F
80
80
80
80
80
80
80
80
80
80
7F
ENDCHAR
STARTCHAR 010E
ENCODING 270
SWIDTH 666 0
DWIDTH 14 0
BBX 11 20 2 0
BITMAP
2300
1200
0C00
0800
0000
FF00
81C0
8040
8060
8060
8060
8060
8060
8060
8060
8060
8060
8040
81C0
FF00
ENDCHAR
STARTCHAR 010F
ENCODING 271
SWIDTH 619 0
DWIDTH 13 0
BBX 11 16 2 0
BITMAP
0120
0120
0120
0160
7F00
8100
8100
8100
8100
8100
8100
8100
8100
8100
8100
7F00
ENDCHAR
STARTCHAR 0110
ENCODING 272
SWIDTH 666 0
DWIDTH 14 0
BBX 13 15 0 0
BITMAP
3FE0
3030
3018
3018
3018
3018
3018
FF18
3018
3018
3018
3018
3018
3030
3FE0
ENDCHAR
STARTCHAR 0111
ENCODING 273
SWIDTH 571 0
DWIDTH 12 0
BBX 10 16 2 0
BITMAP
0100
1FC0
0100
0100
7F00
8100
8100
8100
8100
8100
8100
8100
8100
8100
8100
7F00
ENDCHAR
STARTCHAR 0112
ENCODING 274
SWIDTH 571 0
DWIDTH 12 0
BBX 9 18 2 0
BITMAP
3E00
0000
0000
FF80
8000
8000
8000
8000
8000
8000
FF80
8000
8000
8000
8000
8000
8000
FF80
ENDCHAR
STARTCHAR 0113
ENCODING 275
SWIDTH 571 0
DWIDTH 12 0
BBX 8 15 2 0
BITMAP
7E
00
00
7E
81
81
81
81
FF
80
80
80
80
80
7F
ENDCHAR
STARTCHAR 0116
ENCODING 278
SWIDTH 571 0
DWIDTH 12 0
BBX 9 19 2 0
BITMAP
0800
0800
0000
0000
FF80
8000
8000
8000
8000
8000
8000
FF80
8000
8000
8000
8000
8000
8000
FF80
ENDCHAR
STARTCHAR 0117
ENCODING 279
SWIDTH 571 0
DWIDTH 12 0
BBX 8 16 2 0
BITMAP
18
18
00
00
7E
81
81
81
81
FF
80
80
80
80
80
7F
ENDCHAR
STARTCHAR 0118
ENCODING 280
SWIDTH 571 0
DWIDTH 12 0
BBX 9 19 2 -4
BITMAP
FF80
8000
8000
8000
8000
8000
8000
FF80
8000
8000
8000
8000
8000
8000
FF80
0400
0400
0400
0380
ENDCHAR
STARTCHAR 0119
ENCODING 281
SWIDTH 571 0
DWIDTH 12 0
BBX 8 16 2 -4
BITMAP
7E
81
81
81
81
FF
80
80
80
80
80
7F
08
08
08
0F
ENDCHAR
STARTCHAR 011A
ENCODING 282
SWIDTH 571 0
DWIDTH 12 0
BBX 9 20 2 0
BITMAP
2200
3600
1C00
0800
0000
FF80
8000
8000
8000
8000
8000
8000
FF80
8000
8000
8000
8000
8000
8000
FF80
ENDCHAR
STARTCHAR 011B
ENCODING 283
SWIDTH 571 0
DWIDTH 12 0
BBX 8 17 2 0
BITMAP
42
24
18
10
00
7E
81
81
81
81
FF
80
80
80
80
80
7F
ENDCHAR
STARTCHAR 011E
ENCODING 286
SWIDTH 666 0
DWIDTH 14 0
BBX 11 19 2 0
BITMAP
1100
1100
1E00
0000
7FC0
C000
8000
8000
8000
8000
8000
87E0
8060
8060
8060
8060
8060
C060
7FE0
ENDCHAR
STARTCHAR 011F
ENCODING 287
SWIDTH 571 0
DWIDTH 12 0
BBX 8 22 2 -5
BITMAP
42
42
3C
00
00
7F
81
81
81
81
81
81
81
81
81
81
7F
01
01
01
01
FE
ENDCHAR
STARTCHAR 0122
ENCODING 290
SWIDTH 666 0
DWIDTH 14 0
BBX 11 19 2 -4
BITMAP
7FC0
C000
8000
8000
8000
8000
8000
87E0
8060
8060
8060
8060
8060
C060
7FE0
0000
0C00
0800
0800
ENDCHAR
STARTCHAR 0123
ENCODING 291
SWIDTH 571 0
DWIDTH 12 0
BBX 8 20 2 -5
BITMAP
0C
08
08
7F
81
81
81
81
81
81
81
81
81
81
7F
01
01
01
01
FE
ENDCHAR
STARTCHAR 012A
ENCODING 298
SWIDTH 238 0
DWIDTH 5 0
BBX 5 18 0 0
BITMAP
F8
00
00
20
20
20
20
20
20
20
20
20
20
20
20
20
20
20
ENDCHAR
STARTCHAR 012B
ENCODING 299
SWIDTH 238 0
DWIDTH 5 0
BBX 5 15 0 0
BITMAP
F8
00
00
20
20
20
20
20
20
20
20
20
20
20
20
ENDCHAR
STARTCHAR 012E
ENCODING 302
SWIDTH 238 0
DWIDTH 5 0
BBX 4 19 0 -4
BITMAP
20
20
20
20
20
20
20
20
20
20
20
20
20
20
60
80
80
80
70
ENDCHAR
STARTCHAR 012F
ENCODING 303
SWIDTH 238 0
DWIDTH 5 0
BBX 4 20 0 -4
BITMAP
20
20
00
00
20
20
20
20
20
20
20
20
20
20
20
E0
80
80
80
F0
ENDCHAR
STARTCHAR 0130
ENCODING 304
SWIDTH 238 0
DWIDTH 5 0
BBX 1 19 2 0
BITMAP
80
80
00
00
80
80
80
80
80
80
80
80
80
80
80
80
80
80
80
ENDCHAR
STARTCHAR 0131
ENCODING 305
SWIDTH 238 0
DWIDTH 5 0
BBX 1 12 2 0
BITMAP
80
80
80
80
80
80
80
80
80
80
80
80
ENDCHAR
STARTCHAR 0136
ENCODING 310
SWIDTH 619 0
DWIDTH 13 0
BBX 10 19 2 -4
BITMAP
80C0
8180
8300
8600
8400
8800
9800
BC00
E400
C600
8300
8100
8180
80C0
8040
0000
0800
0800
1000
ENDCHAR
STARTCHAR 0137
ENCODING 311
SWIDTH 523 0
DWIDTH 11 0
BBX 8 20 2 -4
BITMAP
80
80
80
80
83
86
8C
88
90
B0
F8
CC
84
86
82
83
00
10
10
20
ENDCHAR
STARTCHAR 0139
ENCODING 313
SWIDTH 523 0
DWIDTH 11 0
BBX 9 20 2 0
BITMAP
2000
6000
C000
8000
0000
8000
8000
8000
8000
8000
8000
8000
8000
8000
8000
8000
8000
8000
8000
FF80
ENDCHAR
STARTCHAR 013A
ENCODING 314
SWIDTH 238 0
DWIDTH 5 0
BBX 4 22 1 0
BITMAP
30
20
40
80
00
00
40
40
40
40
40
40
40
40
40
40
40
40
40
40
40
30
ENDCHAR
STARTCHAR 013B
ENCODING 315
SWIDTH 523 0
DWIDTH 11 0
BBX 9 19 2 -4
BITMAP
8000
8000
8000
8000
8000
8000
8000
8000
8000
8000
8000
8000
8000
8000
FF80
0000
0800
1800
1000
ENDCHAR
STARTCHAR 013C
ENCODING 316
SWIDTH 238 0
DWIDTH 5 0
BBX 3 20 2 -4
BITMAP
80
80
80
80
80
80
80
80
80
80
80
80
80
80
80
60
00
C0
80
80
ENDCHAR
STARTCHAR 013D
ENCODING 317
SWIDTH 523 0
DWIDTH 11 0
BBX 9 15 2 0
BITMAP
8400
8400
8800
8800
8000
8000
8000
8000
8000
8000
8000
8000
8000
8000
FF80
ENDCHAR
STARTCHAR 013E
ENCODING 318
SWIDTH 285 0
DWIDTH 6 0
BBX 4 16 2 0
BITMAP
90
B0
A0
A0
80
80
80
80
80
80
80
80
80
80
80
60
ENDCHAR
STARTCHAR 0141
ENCODING 321
SWIDTH 523 0
DWIDTH 11 0
BBX 11 15 0 0
BITMAP
2000
2000
2000
2000
2000
2200
2E00
3800
6000
E000
2000
2000
2000
2000
3FE0
ENDCHAR
STARTCHAR 0142
ENCODING 322
SWIDTH 238 0
DWIDTH 5 0
BBX 5 16 0 0
BITMAP
20
20
20
20
20
20
28
30
60
A0
20
20
20
20
30
18
ENDCHAR
STARTCHAR 0143
ENCODING 323
SWIDTH 714 0
DWIDTH 15 0
BBX 11 20 2 0
BITMAP
0100
0200
0600
0C00
0000
C020
C020
A020
B020
9020
9820
8C20
8420
8620
8320
8120
81A0
80A0
8060
8060
ENDCHAR
STARTCHAR 0144
ENCODING 324
SWIDTH 571 0
DWIDTH 12 0
BBX 9 17 2 0
BITMAP
0600
0C00
0800
1000
0000
FE00
8100
8180
8180
8180
8180
8180
8180
8180
8180
8180
8180
ENDCHAR
STARTCHAR 0145
ENCODING 325
SWIDTH 714 0
DWIDTH 15 0
BBX 11 19 2 -4
BITMAP
C020
C020
A020
B020
9020
9820
8C20
8420
8620
8320
8120
81A0
80A0
8060
8060
0000
0400
0C00
0800
ENDCHAR
STARTCHAR 0146
ENCODING 326
SWIDTH 571 0
DWIDTH 12 0
BBX 9 16 2 -4
BITMAP
FE00
8100
8180
8180
8180
8180
8180
8180
8180
8180
8180
8180
0000
1800
1000
1000
ENDCHAR
STARTCHAR 0147
ENCODING 327
SWIDTH 714 0
DWIDTH 15 0
BBX 11 20 2 0
BITMAP
1100
1B00
0E00
0400
0000
C020
C020
A020
B020
9020
9820
8C20
8420
8620
8320
8120
81A0
80A0
8060
8060
ENDCHAR
STARTCHAR 0148
ENCODING 328
SWIDTH 571 0
DWIDTH 12 0
BBX 9 17 2 0
BITMAP
6200
2400
1C00
0800
0000
FE00
8100
8180
8180
8180
8180
8180
8180
8180
8180
8180
8180
ENDCHAR
STARTCHAR 014C
ENCODING 332
SWIDTH 714 0
DWIDTH 15 0
BBX 11 18 2 0
BITMAP
1F00
0000
0000
7FC0
C060
8060
8020
8020
8020
8020
8020
8020
8020
8020
8020
8060
C060
7FC0
ENDCHAR
STARTCHAR 014D
ENCODING 333
SWIDTH 571 0
DWIDTH 12 0
BBX 9 15 2 0
BITMAP
7E00
0000
0000
7E00
8100
8180
8180
8180
8180
8180
8180
8180
8180
8100
7E00
ENDCHAR
STARTCHAR 0150
ENCODING 336
SWIDTH 714 0
DWIDTH 15 0
BBX 11 20 2 0
BITMAP
0480
0D80
1900
1200
0000
7FC0
C060
8060
8020
8020
8020
8020
8020
8020
8020
8020
8020
8060
C060
7FC0
ENDCHAR
STARTCHAR 0151
ENCODING 337
SWIDTH 571 0
DWIDTH 12 0
BBX 9 17 2 0
BITMAP
0900
1300
3200
2400
0000
7E00
8100
8180
8180
8180
8180
8180
8180
8180
8180
8100
7E00
ENDCHAR
STARTCHAR 0152
ENCODING 338
SWIDTH 952 0
DWIDTH 20 0
BBX 17 15 2 0
BITMAP
7FFF80
C0C000
80C000
80C000
80C000
80C000
80C000
80FF00
80C000
80C000
80C000
80C000
80C000
C0C000
7FFF80
ENDCHAR
STARTCHAR 0153
ENCODING 339
SWIDTH 904 0
DWIDTH 19 0
BBX 16 12 2 0
BITMAP
7EFE
8382
8103
8103
8103
81FF
8100
8100
8100
8100
8380
7EFE
ENDCHAR
STARTCHAR 0154
ENCODING 340
SWIDTH 619 0
DWIDTH 13 0
BBX 10 20 2 0
BITMAP
0200
0400
0C00
1800
0000
FF80
80C0
80C0
80C0
80C0
80C0
80C0
80C0
FF80
8300
8100
8180
8080
80C0
8040
ENDCHAR
STARTCHAR 0155
ENCODING 341
SWIDTH 380 0
DWIDTH 8 0
BBX 5 17 2 0
BITMAP
18
10
20
40
00
F8
80
80
80
80
80
80
80
80
80
80
80
ENDCHAR
STARTCHAR 0156
ENCODING 342
SWIDTH 619 0
DWIDTH 13 0
BBX 10 19 2 -4
BITMAP
FF80
80C0
80C0
80C0
80C0
80C0
80C0
80C0
FF80
8300
8100
8180
8080
80C0
8040
0000
0800
0800
1000
ENDCHAR
STARTCHAR 0157
ENCODING 343
SWIDTH 380 0
DWIDTH 8 0
BBX 6 16 1 -4
BITMAP
7C
40
40
40
40
40
40
40
40
40
40
40
00
40
C0
80
ENDCHAR
STARTCHAR 0158
ENCODING 344
SWIDTH 619 0
DWIDTH 13 0
BBX 10 20 2 0
BITMAP
2200
3600
1C00
0800
0000
FF80
80C0
80C0
80C0
80C0
80C0
80C0
80C0
FF80
8300
8100
8180
8080
80C0
8040
ENDCHAR
STARTCHAR 0159
ENCODING 345
SWIDTH 380 0
DWIDTH 8 0
BBX 5 17 2 0
BITMAP
88
D0
70
20
00
F8
80
80
80
80
80
80
80
80
80
80
80
ENDCHAR
STARTCHAR 015A
ENCODING 346
SWIDTH 571 0
DWIDTH 12 0
BBX 10 20 1 0
BITMAP
0200
0600
0400
0800
0000
7F80
4000
C000
C000
C000
C000
7000
1F80
0180
00C0
00C0
00C0
00C0
0080
FF80
ENDCHAR
STARTCHAR 015B
ENCODING 347
SWIDTH 476 0
DWIDTH 10 0
BBX 8 17 1 0
BITMAP
06
0C
08
10
00
7F
40
C0
C0
40
7C
07
01
01
01
03
FE
ENDCHAR
STARTCHAR 015E
ENCODING 350
SWIDTH 571 0
DWIDTH 12 0
BBX 10 19 1 -4
BITMAP
7F80
4000
C000
C000
C000
C000
7000
1F80
0180
00C0
00C0
00C0
00C0
0080
FF80
0200
0200
0200
1C00
ENDCHAR
STARTCHAR 015F
ENCODING 351
SWIDTH 476 0
DWIDTH 10 0
BBX 8 16 1 -4
BITMAP
7F
40
C0
C0
40
7C
07
01
01
01
03
FE
04
04
04
38
ENDCHAR
STARTCHAR 0160
ENCODING 352
SWIDTH 571 0
DWIDTH 12 0
BBX 10 20 1 0
BITMAP
2100
1200
0C00
0400
0000
7F80
4000
C000
C000
C000
C000
7000
1F80
0180
00C0
00C0
00C0
00C0
0080
FF80
ENDCHAR
STARTCHAR 0161
ENCODING 353
SWIDTH 476 0
DWIDTH 10 0
BBX 8 17 1 0
BITMAP
62
34
1C
08
00
7F
40
C0
C0
40
7C
07
01
01
01
03
FE
ENDCHAR
STARTCHAR 0162
ENCODING 354
SWIDTH 571 0
DWIDTH 12 0
BBX 12 19 0 -4
BITMAP
FFF0
0600
0600
0600
0600
0600
0600
0600
0600
0600
0600
0600
0600
0600
0700
0100
0100
0100
0E00
ENDCHAR
STARTCHAR 0163
ENCODING 355
SWIDTH 380 0
DWIDTH 8 0
BBX 5 19 2 -4
BITMAP
80
80
80
F8
80
80
80
80
80
80
80
80
80
C0
78
10
10
10
F0
ENDCHAR
STARTCHAR 0164
ENCODING 356
SWIDTH 571 0
DWIDTH 12 0
BBX 12 20 0 0
BITMAP
1880
0900
0600
0200
0000
FFF0
0600
0600
0600
0600
0600
0600
0600
0600
0600
0600
0600
0600
0600
0600
ENDCHAR
STARTCHAR 0165
ENCODING 357
SWIDTH 380 0
DWIDTH 8 0
BBX 5 16 2 0
BITMAP
18
90
90
90
F8
80
80
80
80
80
80
80
80
80
C0
78
ENDCHAR
STARTCHAR 016A
ENCODING 362
SWIDTH 666 0
DWIDTH 14 0
BBX 11 18 2 0
BITMAP
1F00
0000
0000
8060
8060
8060
8060
8060
8060
8060
8060
8060
8060
8060
8060
8060
C0C0
7F80
ENDCHAR
STARTCHAR 016B
ENCODING 363
SWIDTH 571 0
DWIDTH 12 0
BBX 9 15 2 0
BITMAP
7E00
0000
0000
8180
8180
8180
8180
8180
8180
8180
8180
8180
8180
C180
7F80
ENDCHAR
STARTCHAR 016E
ENCODING 366
SWIDTH 666 0
DWIDTH 14 0
BBX 11 20 2 0
BITMAP
1E00
1200
1200
1E00
0000
8060
8060
8060
8060
8060
8060
8060
8060
8060
8060
8060
8060
8060
C0C0
7F80
ENDCHAR
STARTCHAR 016F
ENCODING 367
SWIDTH 571 0
DWIDTH 12 0
BBX 9 17 2 0
BITMAP
3C00
2400
2400
3C00
0000
8180
8180
8180
8180
8180
8180
8180
8180
8180
8180
C180
7F80
ENDCHAR
STARTCHAR 0170
ENCODING 368
SWIDTH 666 0
DWIDTH 14 0
BBX 11 20 2 0
BITMAP
0480
0D80
1900
1200
0000
8060
8060
8060
8060
8060
8060
8060
8060
8060
8060
8060
8060
8060
C0C0
7F80
ENDCHAR
STARTCHAR 0171
ENCODING 369
SWIDTH 571 0
DWIDTH 12 0
BBX 9 17 2 0
BITMAP
0900
1300
3200
2400
0000
8180
8180
8180
8180
8180
8180
8180
8180
8180
8180
C180
7F80
ENDCHAR
STARTCHAR 0172
ENCODING 370
SWIDTH 666 0
DWIDTH 14 0
BBX 11 19 2 -4
BITMAP
8060
8060
8060
8060
8060
8060
8060
8060
8060
8060
8060
8060
8060
C0C0
7F80
0400
0400
0400
0700
ENDCHAR
STARTCHAR 0173
ENCODING 371
SWIDTH 571 0
DWIDTH 12 0
BBX 9 16 2 -4
BITMAP
8180
8180
8180
8180
8180
8180
8180
8180
8180
8180
C180
7F80
0400
0400
0400
0780
ENDCHAR
STARTCHAR 0178
ENCODING 376
SWIDTH 571 0
DWIDTH 12 0
BBX 12 19 0 0
BITMAP
1980
1980
0000
0000
C030
6060
2040
30C0
1080
1980
0900
0F00
0600
0600
0600
0600
0600
0600
0600
ENDCHAR
STARTCHAR 0179
ENCODING 377
SWIDTH 619 0
DWIDTH 13 0
BBX 10 20 1 0
BITMAP
0300
0200
0400
0800
0000
FFC0
00C0
0080
0180
0300
0200
0600
0C00
0800
1800
3000
2000
6000
C000
FFC0
ENDCHAR
STARTCHAR 017A
ENCODING 378
SWIDTH 523 0
DWIDTH 11 0
BBX 9 17 1 0
BITMAP
0600
0400
0800
1000
0000
FF00
0300
0200
0600
0C00
0800
1800
3000
2000
6000
C000
FF80
ENDCHAR
STARTCHAR 017B
ENCODING 379
SWIDTH 619 0
DWIDTH 13 0
BBX 10 19 1 0
BITMAP
0C00
0C00
0000
0000
FFC0
00C0
0080
0180
0300
0200
0600
0C00
0800
1800
3000
2000
6000
C000
FFC0
ENDCHAR
STARTCHAR 017C
ENCODING 380
SWIDTH 523 0
DWIDTH 11 0
BBX 9 16 1 0
BITMAP
0800
0800
0000
0000
FF00
0300
0200
0600
0C00
0800
1800
3000
2000
6000
C000
FF80
ENDCHAR
STARTCHAR 017D
ENCODING 381
SWIDTH 619 0
DWIDTH 13 0
BBX 10 20 1 0
BITMAP
3100
1A00
0E00
0400
0000
FFC0
00C0
0080
0180
0300
0200
0600
0C00
0800
1800
3000
2000
6000
C000
FFC0
ENDCHAR
STARTCHAR 017E
ENCODING 382
SWIDTH 523 0
DWIDTH 11 0
BBX 9 17 1 0
BITMAP
2200
3600
1C00
0800
0000
FF00
0300
0200
0600
0C00
0800
1800
3000
2000
6000
C000
FF80
ENDCHAR
STARTCHAR 0192
ENCODING 402
SWIDTH 571 0
DWIDTH 12 0
BBX 9 19 1 -3
BITMAP
0F80
1800
1000
1000
1F00
1000
1000
1000
1000
1000
1000
1000
1000
1000
1000
1000
1000
3000
E000
ENDCHAR
STARTCHAR 0218
ENCODING 536
SWIDTH 571 0
DWIDTH 12 0
BBX 10 19 1 -4
BITMAP
7F80
4000
C000
C000
C000
C000
7000
1F80
0180
00C0
00C0
00C0
00C0
0080
FF80
0000
0C00
0800
0800
ENDCHAR
STARTCHAR 0219
ENCODING 537
SWIDTH 476 0
DWIDTH 10 0
BBX 8 16 1 -4
BITMAP
7F
40
C0
C0
40
7C
07
01
01
01
03
FE
00
18
10
10
ENDCHAR
STARTCHAR 021A
ENCODING 538
SWIDTH 571 0
DWIDTH 12 0
BBX 12 19 0 -4
BITMAP
FFF0
0600
0600
0600
0600
0600
0600
0600
0600
0600
0600
0600
0600
0600
0600
0000
0600
0400
0400
ENDCHAR
STARTCHAR 021B
ENCODING 539
SWIDTH 380 0
DWIDTH 8 0
BBX 5 19 2 -4
BITMAP
80
80
80
F8
80
80
80
80
80
80
80
80
80
C0
78
00
20
20
40
ENDCHAR
STARTCHAR 0237
ENCODING 567
SWIDTH 238 0
DWIDTH 5 0
BBX 3 17 0 -5
BITMAP
20
20
20
20
20
20
20
20
20
20
20
20
20
20
20
60
C0
ENDCHAR
STARTCHAR 02C6
ENCODING 710
SWIDTH 523 0
DWIDTH 11 0
BBX 6 4 2 13
BITMAP
10
38
68
C4
ENDCHAR
STARTCHAR 02C7
ENCODING 711
SWIDTH 523 0
DWIDTH 11 0
BBX 6 4 2 13
BITMAP
C4
68
38
10
ENDCHAR
STARTCHAR 02C9
ENCODING 713
SWIDTH 523 0
DWIDTH 11 0
BBX 5 1 3 14
BITMAP
F8
ENDCHAR
STARTCHAR 02D8
ENCODING 728
SWIDTH 523 0
DWIDTH 11 0
BBX 5 3 3 14
BITMAP
88
88
F8
ENDCHAR
STARTCHAR 02D9
ENCODING 729
SWIDTH 523 0
DWIDTH 11 0
BBX 2 2 4 14
BITMAP
C0
C0
ENDCHAR
STARTCHAR 02DA
ENCODING 730
SWIDTH 523 0
DWIDTH 11 0
BBX 4 4 3 13
BITMAP
F0
90
90
F0
ENDCHAR
STARTCHAR 02DB
ENCODING 731
SWIDTH 523 0
DWIDTH 11 0
BBX 4 5 4 -4
BITMAP
C0
80
80
80
F0
ENDCHAR
STARTCHAR 02DC
ENCODING 732
SWIDTH 523 0
DWIDTH 11 0
BBX 6 3 2 14
BITMAP
64
54
98
ENDCHAR
STARTCHAR 02DD
ENCODING 733
SWIDTH 523 0
DWIDTH 11 0
BBX 6 4 3 13
BITMAP
24
6C
C8
90
ENDCHAR
STARTCHAR 0300
ENCODING 768
SWIDTH 0 0
DWIDTH 0 0
BBX 3 4 -8 13
BITMAP
80
C0
60
20
ENDCHAR
STARTCHAR 0301
ENCODING 769
SWIDTH 0 0
DWIDTH 0 0
BBX 3 4 -7 13
BITMAP
20
60
C0
80
ENDCHAR
STARTCHAR 0302
ENCODING 770
SWIDTH 0 0
DWIDTH 0 0
BBX 6 4 -9 13
BITMAP
10
30
48
84
ENDCHAR
STARTCHAR 0303
ENCODING 771
SWIDTH 0 0
DWIDTH 0 0
BBX 6 3 -9 14
BITMAP
64
D4
98
ENDCHAR
STARTCHAR 0304
ENCODING 772
SWIDTH 0 0
DWIDTH 0 0
BBX 6 1 -9 14
BITMAP
FC
ENDCHAR
STARTCHAR 0306
ENCODING 774
SWIDTH 0 0
DWIDTH 0 0
BBX 6 3 -9 14
BITMAP
84
84
78
ENDCHAR
STARTCHAR 0307
ENCODING 775
SWIDTH 0 0
DWIDTH 0 0
BBX 2 2 -7 14
BITMAP
C0
C0
ENDCHAR
STARTCHAR 0308
ENCODING 776
SWIDTH 0 0
DWIDTH 0 0
BBX 6 2 -9 14
BITMAP
CC
CC
ENDCHAR
STARTCHAR 030A
ENCODING 778
SWIDTH 0 0
DWIDTH 0 0
BBX 4 4 -8 13
BITMAP
F0
90
90
F0
ENDCHAR
STARTCHAR 030B
ENCODING 779
SWIDTH 0 0
DWIDTH 0 0
BBX 6 4 -8 13
BITMAP
64
4C
D8
90
ENDCHAR
STARTCHAR 030C
ENCODING 780
SWIDTH 0 0
DWIDTH 0 0
BBX 6 4 -9 13
BITMAP
84
48
30
10
ENDCHAR
STARTCHAR 0326
ENCODING 806
SWIDTH 0 0
DWIDTH 0 0
BBX 2 3 -7 -4
BITMAP
C0
80
80
ENDCHAR
STARTCHAR 0327
ENCODING 807
SWIDTH 0 0
DWIDTH 0 0
BBX 4 5 -8 -4
BITMAP
10
10
10
10
E0
ENDCHAR
STARTCHAR 0328
ENCODING 808
SWIDTH 0 0
DWIDTH 0 0
BBX 3 5 -7 -4
BITMAP
C0
80
80
80
E0
ENDCHAR
STARTCHAR 03C0
ENCODING 960
SWIDTH 571 0
DWIDTH 12 0
BBX 9 12 2 0
BITMAP
FF80
8180
8180
8180
8180
8180
8180
8180
8180
8180
8180
8180
ENDCHAR
STARTCHAR 1E9E
ENCODING 7838
SWIDTH 666 0
DWIDTH 14 0
BBX 11 15 2 0
BITMAP
7FC0
C080
8180
8300
8200
8600
8C00
8FC0
8060
8020
8020
8020
8020
8060
8FC0
ENDCHAR
STARTCHAR 2013
ENCODING 8211
SWIDTH 571 0
DWIDTH 12 0
BBX 10 1 1 6
BITMAP
FFC0
ENDCHAR
STARTCHAR 2014
ENCODING 8212
SWIDTH 1000 0
DWIDTH 21 0
BBX 19 1 1 6
BITMAP
FFFFE0
ENDCHAR
STARTCHAR 2018
ENCODING 8216
SWIDTH 238 0
DWIDTH 5 0
BBX 3 5 1 11
BITMAP
20
20
60
40
C0
ENDCHAR
STARTCHAR 2019
ENCODING 8217
SWIDTH 238 0
DWIDTH 5 0
BBX 3 5 1 11
BITMAP
60
60
40
40
C0
ENDCHAR
STARTCHAR 201A
ENCODING 8218
SWIDTH 238 0
DWIDTH 5 0
BBX 2 5 1 -3
BITMAP
40
40
C0
80
80
ENDCHAR
STARTCHAR 201C
ENCODING 8220
SWIDTH 428 0
DWIDTH 9 0
BBX 7 5 1 11
BITMAP
22
24
64
4C
CC
ENDCHAR
STARTCHAR 201D
ENCODING 8221
SWIDTH 428 0
DWIDTH 9 0
BBX 7 5 1 11
BITMAP
66
64
4C
48
C8
ENDCHAR
STARTCHAR 201E
ENCODING 8222
SWIDTH 428 0
DWIDTH 9 0
BBX 6 5 1 -3
BITMAP
4C
4C
C8
88
90
ENDCHAR
STARTCHAR 2020
ENCODING 8224
SWIDTH 476 0
DWIDTH 10 0
BBX 8 17 1 -2
BITMAP
18
18
18
18
18
FF
18
18
18
18
18
18
18
18
18
18
18
ENDCHAR
STARTCHAR 2021
ENCODING 8225
SWIDTH 476 0
DWIDTH 10 0
BBX 8 17 1 -2
BITMAP
18
18
18
18
18
FF
18
18
18
18
18
FF
18
18
18
18
18
ENDCHAR
STARTCHAR 2022
ENCODING 8226
SWIDTH 380 0
DWIDTH 8 0
BBX 4 4 2 6
BITMAP
F0
F0
F0
F0
ENDCHAR
STARTCHAR 2026
ENCODING 8230
SWIDTH 761 0
DWIDTH 16 0
BBX 12 2 2 0
BITMAP
C610
C610
ENDCHAR
STARTCHAR 2030
ENCODING 8240
SWIDTH 1190 0
DWIDTH 25 0
BBX 23 15 1 0
BITMAP
F81000
842000
842000
846000
844000
84C000
849F3E
85A122
F92122
032122
022122
062122
042122
0C2122
081F3E
ENDCHAR
STARTCHAR 2039
ENCODING 8249
SWIDTH 285 0
DWIDTH 6 0
BBX 4 9 1 2
BITMAP
10
20
60
C0
80
C0
60
20
10
ENDCHAR
STARTCHAR 203A
ENCODING 8250
SWIDTH 285 0
DWIDTH 6 0
BBX 4 9 1 2
BITMAP
80
40
60
30
10
30
60
40
80
ENDCHAR
STARTCHAR 2044
ENCODING 8260
SWIDTH 142 0
DWIDTH 3 0
BBX 8 15 -3 0
BITMAP
01
01
02
02
06
04
0C
08
18
10
30
20
60
40
C0
ENDCHAR
STARTCHAR 2070
ENCODING 8304
SWIDTH 380 0
DWIDTH 8 0
BBX 6 9 1 6
BITMAP
F8
84
84
84
84
84
84
84
F8
ENDCHAR
STARTCHAR 2074
ENCODING 8308
SWIDTH 380 0
DWIDTH 8 0
BBX 6 9 1 6
BITMAP
30
20
20
44
44
84
FC
04
04
ENDCHAR
STARTCHAR 2080
ENCODING 8320
SWIDTH 380 0
DWIDTH 8 0
BBX 6 9 1 0
BITMAP
F8
84
84
84
84
84
84
84
F8
ENDCHAR
STARTCHAR 2081
ENCODING 8321
SWIDTH 380 0
DWIDTH 8 0
BBX 6 9 1 0
BITMAP
70
30
30
30
30
30
30
30
FC
ENDCHAR
STARTCHAR 2082
ENCODING 8322
SWIDTH 380 0
DWIDTH 8 0
BBX 6 9 1 0
BITMAP
F8
04
04
0C
78
80
80
80
FC
ENDCHAR
STARTCHAR 2083
ENCODING 8323
SWIDTH 380 0
DWIDTH 8 0
BBX 6 9 1 0
BITMAP
F8
04
04
0C
78
04
04
04
F8
ENDCHAR
STARTCHAR 2084
ENCODING 8324
SWIDTH 380 0
DWIDTH 8 0
BBX 6 9 1 0
BITMAP
30
20
20
44
44
84
FC
04
04
ENDCHAR
STARTCHAR 20AC
ENCODING 8364
SWIDTH 571 0
DWIDTH 12 0
BBX 10 15 1 0
BITMAP
3FC0
2000
6000
6000
6000
6000
FF80
6000
FF00
6000
6000
6000
6000
2000
3FC0
ENDCHAR
STARTCHAR 20BA
ENCODING 8378
SWIDTH 571 0
DWIDTH 12 0
BBX 11 15 0 0
BITMAP
1000
1000
1080
1700
1C00
7080
9700
1C00
F020
1020
1020
1060
1040
10C0
1F80
ENDCHAR
STARTCHAR 20BD
ENCODING 8381
SWIDTH 571 0
DWIDTH 12 0
BBX 10 15 1 0
BITMAP
7F80
40C0
40C0
4040
4040
4040
40C0
FF80
4000
FE00
4000
4000
4000
4000
4000
ENDCHAR
STARTCHAR 2113
ENCODING 8467
SWIDTH 238 0
DWIDTH 5 0
BBX 3 16 2 0
BITMAP
80
80
80
80
80
80
80
80
80
80
80
80
80
80
80
60
ENDCHAR
STARTCHAR 2122
ENCODING 8482
SWIDTH 761 0
DWIDTH 16 0
BBX 15 8 0 7
BITMAP
FD82
1186
11C6
11CA
11AA
11B2
1192
1182
ENDCHAR
STARTCHAR 2126
ENCODING 8486
SWIDTH 714 0
DWIDTH 15 0
BBX 12 15 1 0
BITMAP
3FE0
6030
4030
4010
4010
4010
4010
4010
4010
4030
6030
2060
3040
18C0
F8F0
ENDCHAR
STARTCHAR 212E
ENCODING 8494
SWIDTH 857 0
DWIDTH 18 0
BBX 16 15 1 0
BITMAP
07E0
1818
3004
6006
6007
6007
E007
FFFF
E000
6000
6000
6000
3004
1818
07E0
ENDCHAR
STARTCHAR 2202
ENCODING 8706
SWIDTH 571 0
DWIDTH 12 0
BBX 8 16 2 0
BITMAP
FC
03
01
01
01
01
7F
81
81
81
81
81
81
81
81
7E
ENDCHAR
STARTCHAR 2206
ENCODING 8710
SWIDTH 619 0
DWIDTH 13 0
BBX 13 15 0 0
BITMAP
0700
0500
0580
0C80
0880
08C0
1840
1040
1060
3020
2020
2030
6010
4010
FFF8
ENDCHAR
STARTCHAR 220F
ENCODING 8719
SWIDTH 714 0
DWIDTH 15 0
BBX 11 17 2 -2
BITMAP
FFE0
8060
8060
8060
8060
8060
8060
8060
8060
8060
8060
8060
8060
8060
8060
8060
8060
ENDCHAR
STARTCHAR 2211
ENCODING 8721
SWIDTH 571 0
DWIDTH 12 0
BBX 10 17 1 -2
BITMAP
FFC0
C000
6000
2000
3000
1800
0800
0C00
0600
0C00
0800
1800
3000
2000
6000
C000
FFC0
ENDCHAR
STARTCHAR 2212
ENCODING 8722
SWIDTH 571 0
DWIDTH 12 0
BBX 10 1 1 7
BITMAP
FFC0
ENDCHAR
STARTCHAR 2215
ENCODING 8725
SWIDTH 142 0
DWIDTH 3 0
BBX 8 15 -3 0
BITMAP
01
01
02
02
06
04
0C
08
18
10
30
20
60
40
C0
ENDCHAR
STARTCHAR 2219
ENCODING 8729
SWIDTH 238 0
DWIDTH 5 0
BBX 2 2 2 6
BITMAP
C0
C0
ENDCHAR
STARTCHAR 221A
ENCODING 8730
SWIDTH 571 0
DWIDTH 12 0
BBX 12 17 0 0
BITMAP
0020
0010
0020
0020
0020
0040
0040
00C0
0080
E080
1180
1100
1900
0B00
0A00
0E00
0400
ENDCHAR
STARTCHAR 221E
ENCODING 8734
SWIDTH 619 0
DWIDTH 13 0
BBX 11 6 1 4
BITMAP
FBC0
8420
8420
8420
8420
FBC0
ENDCHAR
STARTCHAR 222B
ENCODING 8747
SWIDTH 380 0
DWIDTH 8 0
BBX 8 21 0 -5
BITMAP
07
08
08
08
08
08
08
08
08
08
08
08
08
08
08
08
08
08
08
18
F0
ENDCHAR
STARTCHAR 2248
ENCODING 8776
SWIDTH 571 0
DWIDTH 12 0
BBX 10 8 1 3
BITMAP
3840
68C0
C580
8300
3840
68C0
C580
8300
ENDCHAR
STARTCHAR 2260
ENCODING 8800
SWIDTH 571 0
DWIDTH 12 0
BBX 10 12 1 1
BITMAP
0100
0100
0200
FFC0
0400
0400
0800
0800
FFC0
1000
3000
2000
ENDCHAR
STARTCHAR 2264
ENCODING 8804
SWIDTH 571 0
DWIDTH 12 0
BBX 10 12 1 0
BITMAP
01C0
0700
1C00
7000
C000
7000
1C00
0700
01C0
0000
0000
FFC0
ENDCHAR
STARTCHAR 2265
ENCODING 8805
SWIDTH 571 0
DWIDTH 12 0
BBX 10 12 1 0
BITMAP
E000
3800
0E00
0380
0040
0380
0E00
3800
E000
0000
0000
FFC0
ENDCHAR
STARTCHAR 25CA
ENCODING 9674
SWIDTH 571 0
DWIDTH 12 0
BBX 10 15 1 0
BITMAP
0C00
0E00
1200
3300
2100
6180
4080
C040
4080
6180
2100
3300
1200
0E00
0C00
ENDCHAR
STARTCHAR F000
ENCODING 61440
SWIDTH 714 0
DWIDTH 15 0
BBX 13 11 1 2
BITMAP
0200
0600
0700
0F00
0F80
1FC0
1FC0
3FE0
7FE0
7FF0
FFF8
ENDCHAR
STARTCHAR FB01
ENCODING 64257
SWIDTH 619 0
DWIDTH 13 0
BBX 9 16 2 0
BITMAP
7980
8180
8000
8000
F880
8080
8080
8080
8080
8080
8080
8080
8080
8080
8080
8080
ENDCHAR
STARTCHAR FB02
ENCODING 64258
SWIDTH 619 0
DWIDTH 13 0
BBX 10 16 2 0
BITMAP
7980
8180
8180
8180
F980
8180
8180
8180
8180
8180
8180
8180
8180
8180
8080
80C0
ENDCHAR
ENDFONT
